<svg width="200" height="200" viewBox="0 0 200 200" fill="none" xmlns="http://www.w3.org/2000/svg">
  <circle cx="100" cy="100" r="90" fill="#FFD700" stroke="#200052" stroke-width="6"/>
  <path d="M100 50C72.4 50 50 72.4 50 100C50 127.6 72.4 150 100 150C127.6 150 150 127.6 150 100C150 72.4 127.6 50 100 50ZM100 140C77.9 140 60 122.1 60 100C60 77.9 77.9 60 100 60C122.1 60 140 77.9 140 100C140 122.1 122.1 140 100 140Z" fill="#836EF9"/>
  <path d="M110 85H90V115H110V85Z" fill="#200052"/>
  <path d="M100 70L85 85H115L100 70Z" fill="#200052"/>
  <path d="M100 130L85 115H115L100 130Z" fill="#200052"/>
</svg>